<svg width="13" height="13" viewBox="0 0 13 13" fill="none" xmlns="http://www.w3.org/2000/svg">
<path d="M6.7002 0C7.0867 0.00010583 7.40039 0.313661 7.40039 0.700195V6H12.2998C12.6864 6 13 6.3136 13 6.7002C12.9999 7.0867 12.6863 7.40039 12.2998 7.40039H7.40039V12.2998C7.40039 12.6863 7.0867 12.9999 6.7002 13C6.3136 13 6 12.6864 6 12.2998V7.40039H0.700195C0.313661 7.40039 0.00010554 7.0867 0 6.7002C0 6.3136 0.313596 6 0.700195 6H6V0.700195C6 0.313596 6.3136 1.68988e-08 6.7002 0Z" fill="currentColor"/>
</svg>
