<svg width="142" height="23" viewBox="0 0 142 23" fill="none" xmlns="http://www.w3.org/2000/svg">
<g clip-path="url(#clip0_1257_8605)">
<path fill-rule="evenodd" clip-rule="evenodd" d="M110.291 9.06072H97.8362V19.8111H110.291V16.0304H103.787V13.1373H114.177V18.9892C114.177 20.5235 113.889 21.5755 113.308 22.1508C112.694 22.7152 111.565 23.0001 109.92 23.0001H98.1019C96.4579 23.0001 95.3286 22.7152 94.7086 22.1508C94.1384 21.57 93.8506 20.518 93.8506 18.9892V10.047C93.8506 8.52376 94.1384 7.47173 94.7086 6.89641C95.3231 6.32113 96.4523 6.03613 98.1019 6.03613H109.92C111.57 6.03613 112.688 6.31012 113.275 6.86357C113.878 7.41149 114.177 8.41967 114.177 9.88808V10.2826L110.291 10.973V9.06072ZM120.877 10.047C120.877 8.52376 121.164 7.47173 121.735 6.89641C122.349 6.32113 123.478 6.03613 125.128 6.03613H137.749C139.415 6.03613 140.534 6.32113 141.098 6.89641C141.701 7.45531 142 8.50734 142 10.047V18.9892C142 20.5344 141.701 21.5864 141.098 22.1508C140.528 22.7152 139.41 23.0001 137.749 23.0001H125.128C123.484 23.0001 122.355 22.7152 121.735 22.1508C121.164 21.57 120.877 20.518 120.877 18.9892V10.047ZM124.862 19.8111H138.015V9.06072H124.862V19.8111Z" fill="#E52D12"/>
<path fill-rule="evenodd" clip-rule="evenodd" d="M27.5596 23.0001V6.03613H30.2886L42.3341 16.0359C42.8267 16.403 43.1921 16.7099 43.4357 16.9509C43.6571 17.1756 43.9449 17.4824 44.2937 17.8715C44.2604 17.3838 44.2383 17.0003 44.2217 16.7208C44.2051 16.4414 44.1885 16.1565 44.1664 15.8661C44.1443 15.603 44.1331 15.2962 44.1331 14.9455V6.03613H47.7202V23.0001H44.9912L32.4087 12.5073C32.0489 12.2004 31.7832 11.9593 31.6061 11.7895C31.3237 11.5045 31.1134 11.2853 30.9861 11.1319C30.9972 11.3237 31.0193 11.5812 31.0469 11.899C31.0802 12.2223 31.1023 12.4579 31.1134 12.6168C31.1356 12.9401 31.1466 13.3456 31.1466 13.8278V23.0001H27.5596ZM55.0998 23.0001V6.03613H59.0799L59.1186 23.0001H55.0998ZM66.404 23.0001V6.03613H69.133L81.1785 16.0359C81.6712 16.403 82.0365 16.7099 82.2801 16.9509C82.5015 17.1756 82.7893 17.4824 83.1381 17.8715C83.1049 17.3838 83.0827 17.0003 83.0661 16.7208C83.0495 16.4414 83.033 16.1565 83.0108 15.8661C82.9887 15.603 82.9776 15.2962 82.9776 14.9455V6.03613H86.5646V23.0001H83.8356L71.2531 12.5073C70.8933 12.2004 70.6276 11.9593 70.4505 11.7895C70.1682 11.5045 69.9578 11.2853 69.8305 11.1319C69.8416 11.3237 69.8637 11.5812 69.8913 11.899C69.9246 12.2223 69.9467 12.4579 69.9578 12.6168C69.98 12.9401 69.991 13.3456 69.991 13.8278V23.0001H66.404Z" fill="#1C1C1C"/>
<path fill-rule="evenodd" clip-rule="evenodd" d="M7.67235 16.2276H15.1731L11.4586 9.32377L7.67235 16.2276ZM0 23.0001L9.65963 6.03613H13.5179L23.3492 23.0001H18.8653L16.8061 19.2851H5.94521L3.95238 23.0001H0Z" fill="#1C1C1C"/>
<path d="M142 0H66.4043V2.55556H142V0Z" fill="#E52D12"/>
<path d="M59.0654 0H55.0947V2.55556H59.0654V0Z" fill="#E52D12"/>
</g>
<defs>
<clipPath id="clip0_1257_8605">
<rect width="142" height="23" fill="white"/>
</clipPath>
</defs>
</svg>
